# xmcd
#
# Track frame offsets: 
#        150
#        22138
#        44235
#        70274
#        95629
#        121696
#        140909
#        163784
#        182811
#
# Disc length: 2691 seconds
#
# Revision: 2
# Processed by: cddbd v1.5.2PL0 Copyright (c) Steve Scherf et al.
# Submitted via: ExactAudioCopy v0.99pb5
#
DISCID=8a0a8109
DTITLE=Allison, Luther - Rich Man
DYEAR=1995
DGENRE=Blues
TTITLE0=Chicago
TTITLE1=Rich Man
TTITLE2=Love Is Free
TTITLE3=Cold As Ice
TTITLE4=Freedom
TTITLE5=Fight
TTITLE6=Mistake
TTITLE7=Get Down
TTITLE8=Cry
EXTD=YEAR: 1995 ID3G: 0
EXTT0=
EXTT1=
EXTT2=
EXTT3=
EXTT4=
EXTT5=
EXTT6=
EXTT7=
EXTT8=
PLAYORDER=
